Coordinates
version=1
nRows=6
nColumns=36
inDegrees=yes

Units are S.I. units (second, meters, Newtons, ...)
If the header above contains a line with 'inDegrees', this indicates whether rotational values are in degrees (yes) or radians (no).

endheader
time	pelvis_tilt	pelvis_list	pelvis_rotation	pelvis_tx	pelvis_ty	pelvis_tz	hip_flexion_r	hip_adduction_r	hip_rotation_r	knee_angle_r	knee_angle_r_beta	ankle_angle_r	subtalar_angle_r	mtp_angle_r	hip_flexion_l	hip_adduction_l	hip_rotation_l	knee_angle_l	knee_angle_l_beta	ankle_angle_l	subtalar_angle_l	mtp_angle_l	lumbar_extension	lumbar_bending	lumbar_rotation	arm_flex_r	arm_add_r	arm_rot_r	elbow_flex_r	pro_sup_r	arm_flex_l	arm_add_l	arm_rot_l	elbow_flex_l	pro_sup_l
      0.00000000	      4.52844326	     -0.04421291	     13.93897278	      0.55147070	      0.90410880	     -0.11355718	     24.46422082	     -6.00964424	      1.01264799	     18.62339568	      0.32503957	      2.38834254	     -4.44201959	     -6.04948473	      6.01857285	     10.11033724	     -2.27399569	     15.70456671	      0.27409640	     15.04817974	     -7.18204922	     -6.04948473	    -14.98263325	     -3.95943325	     -1.38946524	     28.57138843	      6.52833499	     64.32685937	    118.46727720	    110.63369628	     40.96254800	     -0.62859593	     57.13943298	    124.05831993	    102.30043032
      0.01666670	      3.85824363	      0.14980610	     12.93060580	      0.55614605	      0.89767100	     -0.11177065	     25.88738836	     -6.75321496	      1.79005428	     18.12335668	      0.31631225	      3.45552605	     -3.72608241	     -6.09029195	      6.37595091	     10.45775875	     -2.19755757	     15.56774409	      0.27170839	     17.90002049	     -8.21132967	     -6.09029195	    -13.01085195	     -4.12969640	      0.15649456	     29.03346224	      6.88906619	     66.49241237	    119.49216574	    110.12255104	     40.65176779	     -1.59802766	     58.21517271	    127.64275718	    101.55135909
      0.03333330	      3.72321927	      1.07816927	     11.15901979	      0.55620963	      0.90125474	     -0.10927350	     27.46126821	     -6.87270153	      2.73959397	     17.78753925	      0.31045113	      2.71408188	     -4.29316404	     -6.19682795	      7.55554475	     10.74191427	     -4.87967961	     16.76062954	      0.29252817	     17.55862586	     -8.73850633	     -6.19682795	    -13.03677844	     -5.10646715	      1.46499533	     28.76893330	      6.91930489	     68.21115696	    117.69648657	    108.72978005	     39.25831333	     -2.64118425	     57.77802236	    129.44699058	     98.55247505
      0.05000000	      4.00472896	      1.28633699	     10.35577963	      0.55652180	      0.89848383	     -0.10890365	     28.28764898	     -6.58217243	      3.14969147	     17.75810067	      0.30993733	      2.38462152	     -4.00049336	     -6.20563304	      7.60063996	     10.65826652	     -5.34774080	     17.49261847	      0.30530379	     18.11551947	     -9.43584873	     -6.20563304	    -13.37181635	     -5.28731724	      2.58484157	     29.00113638	      6.96602885	     68.47832742	    116.91661805	    108.53779334	     39.61361731	     -2.67253727	     57.95189678	    129.71632169	     98.23041067
      0.06666670	      4.69814508	      1.47366717	      9.61009643	      0.55600575	      0.90265902	     -0.10770712	     28.37234938	     -6.26969892	      3.64362982	     17.90225575	      0.31245331	      2.25016050	     -3.49331328	     -6.21342523	      7.83471343	     10.26535699	     -6.49886660	     19.33564438	      0.33747066	     17.26379309	    -10.12618896	     -6.21342523	    -14.13304528	     -5.33343769	      3.43890061	     28.79858117	      7.30621316	     69.08914891	    116.02584480	    108.27161727	     39.68345017	     -2.73989392	     58.41766861	    129.63827607	     97.81991419
      0.08333330	      5.22513589	      1.33759980	      9.08668083	      0.55581801	      0.90153963	     -0.10755673	     28.77386650	     -5.71403607	      3.89167159	     17.49226799	      0.30529767	      1.83522323	     -2.57456964	     -6.45931722	      7.78977632	      9.69493762	     -7.19830654	     20.54319225	      0.35854634	     17.53507337	    -10.48797528	     -6.45931722	    -14.54372746	     -5.08940558	      4.40535389	     28.83992665	      7.38943375	     70.09147284	    115.18006930	     99.58324501	     40.43577361	     -2.43410248	     59.98254397	    129.30654161	     84.20206976
